<svg width="340" height="260" viewBox="0 0 340 260" fill="none" xmlns="http://www.w3.org/2000/svg">
  <defs>
    <linearGradient id="g1" x1="0" y1="0" x2="1" y2="1">
      <stop stop-color="#FF3B30"></stop>
      <stop offset="1" stop-color="#991B1B"></stop>
    </linearGradient>
  </defs>
  <rect x="90" y="80" rx="24" width="160" height="120" fill="url(#g1)" opacity="0.12"></rect>
  <circle cx="170" cy="110" r="68" fill="#111"></circle>
  <rect x="122" y="82" width="96" height="64" rx="18" fill="#fff"></rect>
  <circle cx="150" cy="114" r="10" fill="#111"></circle>
  <circle cx="190" cy="114" r="10" fill="#111"></circle>
  <rect x="120" y="148" width="100" height="22" rx="11" fill="#111" opacity="0.08"></rect>
  <circle cx="210" cy="188" r="22" fill="#111"></circle>
  <circle cx="130" cy="188" r="22" fill="#111"></circle>
  <rect x="162" y="44" width="16" height="18" rx="8" fill="#FF3B30"></rect>
  <circle cx="170" cy="36" r="10" fill="#FF3B30"></circle>
  <path d="M240 160c8 10 20 14 32 12" stroke="#FF3B30" stroke-width="8" stroke-linecap="round"></path>
  <path d="M100 160c-8 10-20 14-32 12" stroke="#FF3B30" stroke-width="8" stroke-linecap="round"></path>
</svg>
